<?xml version="1.0" standalone="no"?>
<!DOCTYPE svg PUBLIC "-//W3C//DTD SVG 20010904//EN"
 "http://www.w3.org/TR/2001/REC-SVG-20010904/DTD/svg10.dtd">
<svg version="1.0" xmlns="http://www.w3.org/2000/svg"
 width="800.000000pt" height="800.000000pt" viewBox="0 0 800.000000 800.000000"
 preserveAspectRatio="xMidYMid meet">
<metadata>
Created by potrace 1.11, written by Peter Selinger 2001-2013
</metadata>
<g transform="translate(0.000000,800.000000) scale(0.100000,-0.100000)"
fill="#000000" stroke="none">
<path d="M1340 7157 c-3 -2 -27 -7 -55 -10 -77 -9 -103 -15 -207 -49 -71 -22
-98 -35 -98 -47 0 -24 16 -44 29 -37 12 8 34 13 96 24 52 8 241 8 279 0 16 -4
54 -13 85 -19 31 -7 60 -16 66 -21 5 -4 16 -8 25 -8 42 0 233 -107 311 -174
19 -17 60 -51 90 -76 65 -53 175 -162 246 -245 28 -33 62 -71 74 -85 12 -14
33 -41 48 -60 14 -19 28 -37 31 -40 4 -3 19 -23 36 -45 16 -22 50 -66 76 -98
l46 -59 -1 -1396 -2 -1397 -21 -45 c-29 -61 -89 -122 -148 -150 -37 -18 -70
-24 -135 -26 -88 -2 -88 -2 -82 -42 0 -5 229 -8 509 -8 501 1 507 1 504 21 -2
11 -5 21 -6 22 -1 1 -39 5 -85 7 -65 4 -95 11 -138 32 -86 44 -148 124 -160
209 -4 24 -7 2421 -4 2500 1 18 3 17 25 -8 30 -35 152 -170 186 -207 14 -15
57 -63 95 -106 39 -43 88 -97 110 -120 22 -23 59 -64 81 -91 23 -26 52 -60 65
-74 13 -14 62 -67 109 -119 47 -51 92 -101 100 -110 8 -9 49 -54 90 -100 41
-46 82 -91 90 -100 13 -14 147 -162 175 -194 6 -7 33 -36 60 -67 28 -30 86
-95 130 -144 77 -86 132 -146 185 -205 14 -15 57 -62 95 -105 39 -42 79 -87
90 -99 11 -13 52 -58 90 -100 39 -43 79 -88 90 -100 11 -13 54 -60 95 -106 41
-45 86 -95 100 -110 34 -37 170 -187 190 -209 36 -43 147 -166 165 -185 11
-12 54 -60 95 -106 67 -76 408 -419 442 -445 7 -6 40 -33 73 -61 174 -149 461
-289 675 -329 87 -16 272 -22 337 -11 16 3 45 8 64 10 123 17 249 52 249 69
-1 32 -17 40 -66 32 -186 -31 -465 16 -630 106 -57 31 -257 161 -279 182 -7 7
-50 46 -95 87 -144 130 -265 261 -460 499 -19 23 -53 63 -75 88 -22 25 -44 54
-50 64 -12 21 -13 2782 -1 2844 11 57 39 107 87 153 60 59 119 84 217 90 78 5
82 6 82 29 l0 23 -507 -2 -508 -3 -1 -22 c-1 -22 3 -23 67 -24 38 -1 72 -2 77
-3 60 -16 94 -30 118 -48 70 -54 116 -121 130 -189 4 -19 8 -609 8 -1312 l1
-1278 -45 49 c-25 26 -76 84 -115 126 -38 43 -85 95 -103 115 -19 20 -57 62
-85 95 -29 32 -63 70 -77 85 -40 43 -166 184 -190 210 -18 22 -117 131 -190
211 -14 15 -52 58 -85 94 -32 37 -68 78 -80 90 -11 12 -54 60 -95 105 -41 46
-86 96 -100 111 -14 15 -54 60 -90 100 -36 41 -72 81 -80 90 -8 9 -51 56 -95
106 -44 49 -84 94 -90 100 -11 12 -139 154 -170 188 -11 12 -42 47 -70 78 -27
30 -81 90 -120 133 -38 44 -81 91 -95 106 -29 32 -157 173 -182 202 -15 17
-80 89 -172 190 -49 55 -98 110 -181 202 -135 151 -351 363 -430 423 -40 30
-101 77 -105 82 -14 15 -148 100 -158 100 -6 0 -12 4 -14 8 -9 23 -192 94
-303 118 -68 15 -345 31 -355 21z"/>
<path d="M1149 6466 c-2 -2 -32 -7 -66 -11 -91 -10 -118 -14 -275 -41 -48 -8
-106 -17 -128 -20 -48 -7 -75 -12 -75 -14 0 -1 -18 -3 -40 -6 -22 -2 -62 -9
-90 -14 -27 -5 -72 -12 -100 -15 -27 -4 -61 -8 -75 -11 -14 -2 -50 -6 -80 -10
-30 -3 -66 -7 -80 -10 -14 -2 -50 -7 -80 -10 -63 -6 -64 -6 -56 -32 6 -17 14
-18 77 -14 118 7 195 -33 241 -127 l23 -46 0 -1250 c1 -1305 1 -1298 -40
-1362 -59 -89 -151 -139 -256 -138 -40 0 -46 -3 -45 -20 1 -20 9 -20 486 -23
l486 -2 1 22 c2 21 -2 23 -45 24 -95 2 -146 22 -205 79 -36 35 -73 96 -84 139
-7 27 -10 2675 -3 2686 5 7 75 24 145 34 17 2 50 8 75 12 25 4 55 9 68 10 12
2 34 6 50 9 166 28 376 26 457 -5 14 -5 25 -8 25 -5 0 4 46 -14 110 -43 86
-39 215 -150 257 -222 75 -126 98 -193 120 -345 9 -63 10 -274 1 -340 -38
-299 -203 -534 -413 -590 -16 -5 -34 -9 -40 -11 -85 -24 -222 -26 -299 -4
-154 44 -243 113 -299 232 -30 62 -34 67 -51 55 -17 -12 -17 -16 -1 -76 33
-129 111 -242 197 -286 46 -24 168 -75 168 -70 0 2 15 -1 33 -6 90 -27 239
-30 387 -6 86 14 208 65 290 121 39 26 131 114 167 159 82 103 157 273 188
427 7 35 17 166 17 222 -1 178 -39 361 -102 486 -64 126 -188 260 -298 322
-15 8 -29 17 -32 20 -22 25 -243 101 -330 115 -51 8 -374 17 -381 11z"/>
<path d="M6869 6466 c-2 -2 -33 -6 -69 -10 -55 -5 -136 -17 -280 -41 -14 -2
-54 -9 -90 -14 -36 -6 -74 -13 -85 -15 -11 -2 -41 -6 -66 -10 -53 -8 -93 -14
-129 -21 -14 -3 -45 -7 -70 -10 -25 -3 -54 -7 -65 -9 -23 -4 -132 -19 -155
-21 -8 -1 -46 -5 -83 -9 -62 -8 -68 -10 -65 -30 3 -19 8 -21 70 -18 36 2 84
-2 106 -7 78 -21 139 -84 159 -164 3 -12 6 -575 7 -1252 2 -1316 2 -1299 -47
-1370 -57 -80 -135 -123 -235 -130 -26 -2 -50 -4 -54 -4 -5 -1 -8 -10 -8 -21
0 -20 7 -20 484 -20 440 0 484 2 490 16 9 24 3 27 -64 30 -110 4 -207 70 -254
173 -20 46 -20 51 -21 1394 -1 1097 1 1347 12 1348 7 1 16 2 21 3 4 1 29 5 55
10 27 4 56 9 65 10 10 2 40 7 67 11 28 5 52 9 55 10 3 1 30 5 60 9 30 5 64 10
75 13 51 12 244 11 314 -2 226 -40 403 -160 495 -335 39 -73 82 -213 92 -293
10 -85 11 -267 2 -327 -5 -30 -11 -70 -13 -89 -12 -79 -87 -264 -121 -299 -8
-7 -14 -16 -14 -20 0 -12 -73 -86 -117 -120 -135 -105 -371 -139 -538 -77
-135 50 -217 124 -260 236 -21 52 -22 54 -44 40 -12 -7 -11 -20 2 -80 22 -94
57 -161 118 -221 72 -71 181 -124 314 -151 56 -11 266 -15 310 -5 150 33 228
63 330 128 154 98 313 351 350 556 2 15 9 50 14 77 12 65 7 333 -8 410 -50
249 -159 420 -357 561 -82 59 -258 125 -394 150 -41 7 -354 16 -361 10z"/>
<path d="M980 2008 c-25 -9 -35 -19 -74 -70 -16 -21 -25 -38 -21 -38 4 0 3 -6
-2 -12 -21 -26 -47 -123 -60 -223 -9 -67 -10 -387 -1 -450 7 -48 10 -66 24
-130 10 -45 58 -148 84 -178 48 -56 127 -60 176 -9 57 59 105 201 120 353 l6
59 -70 0 c-64 0 -71 -2 -78 -22 -4 -13 -7 -25 -6 -28 1 -14 -35 -61 -52 -66
-43 -14 -77 82 -78 224 -2 147 22 252 59 267 23 8 58 -29 72 -75 l12 -40 71 0
70 0 -6 58 c-9 72 -13 102 -20 127 -3 11 -10 41 -16 66 -15 63 -68 148 -109
176 -33 23 -62 26 -101 11z"/>
<path d="M5725 2004 c-106 -59 -164 -272 -160 -586 3 -169 8 -222 32 -318 45
-186 131 -271 226 -225 74 35 134 175 153 355 3 36 8 68 11 73 2 4 -29 7 -70
7 l-74 0 -12 -39 c-28 -94 -76 -105 -108 -23 -14 38 -18 76 -18 192 0 161 11
210 52 237 25 16 26 16 44 -6 10 -13 24 -41 29 -62 l11 -40 72 3 c41 2 71 7
71 13 -1 6 -5 33 -8 60 -10 85 -15 107 -42 193 -45 141 -131 209 -209 166z"/>
<path d="M0 1438 l0 -568 68 0 68 0 -1 177 0 178 46 6 c59 9 82 24 110 72 40
72 57 165 57 316 0 189 -29 303 -92 361 -26 23 -34 25 -142 26 l-114 1 0 -569z
m200 262 c14 -26 16 -141 2 -166 -12 -22 -58 -30 -64 -11 -4 10 -3 167 1 190
2 16 51 6 61 -13z"/>
<path d="M510 1438 l0 -568 68 0 68 0 -1 568 0 567 -67 1 -68 0 0 -568z"/>
<path d="M1372 1866 l3 -141 45 0 c25 -1 50 -4 55 -7 6 -4 10 -162 9 -426 l0
-420 52 -4 c28 -2 58 -2 67 0 14 3 16 52 16 425 1 269 5 423 11 427 6 4 30 5
55 4 38 -2 45 0 46 17 1 10 1 74 2 142 l1 122 -182 1 -183 0 3 -140z"/>
<path d="M1886 2002 c-6 -11 1 -814 8 -847 3 -16 8 -46 11 -65 7 -42 20 -81
48 -138 73 -152 213 -111 270 78 34 112 40 201 41 590 l1 385 -67 0 -68 1 -1
-351 c0 -192 -2 -359 -4 -369 -14 -75 -35 -102 -67 -85 -34 18 -40 83 -42 449
l-1 355 -63 2 c-34 0 -64 -2 -66 -5z"/>
<path d="M2439 2001 c-1 -8 -1 -1091 0 -1113 1 -15 11 -18 66 -18 55 0 65 3
66 18 0 9 1 95 1 190 1 153 6 207 13 140 5 -39 48 -255 60 -300 2 -5 3 -17 4
-28 1 -18 8 -20 77 -20 l76 0 -7 38 c-8 39 -8 42 -18 82 -3 14 -15 70 -27 125
-11 55 -26 118 -31 141 -10 37 -8 44 15 79 103 152 86 537 -28 644 -24 23 -34
25 -146 27 -66 1 -120 -1 -121 -5z m205 -307 c17 -16 20 -38 17 -113 -1 -49
-19 -69 -60 -66 -26 1 -26 2 -28 86 -1 46 0 90 2 97 6 17 51 15 69 -4z"/>
<path d="M2962 2002 c-6 -2 -9 -9 -6 -16 7 -17 10 -166 4 -166 -4 0 -4 -25 0
-135 1 -16 1 -59 1 -95 0 -36 1 -89 2 -118 1 -28 0 -52 -3 -52 -3 0 -4 -24 -3
-52 7 -149 8 -188 3 -188 -4 0 -4 -37 0 -135 1 -16 1 -59 0 -94 -1 -35 3 -68
8 -73 6 -6 40 -10 76 -10 36 1 97 1 135 1 l69 1 0 140 c1 102 -2 140 -11 141
-7 1 -40 1 -74 1 -41 0 -63 4 -64 11 -5 45 -4 125 2 138 6 11 22 15 68 13 l61
-1 0 133 c0 151 10 136 -90 136 l-45 -1 0 70 c0 77 -9 71 96 70 l56 0 -1 142
-1 142 -136 1 c-74 0 -140 -1 -147 -4z"/>
<path d="M3636 2001 c-2 -3 -4 -258 -3 -566 0 -455 2 -561 13 -565 7 -3 38 -3
68 -2 l55 4 -2 566 -2 567 -63 1 c-34 1 -64 -2 -66 -5z"/>
<path d="M3949 2006 c-1 -1 -2 -256 -3 -568 l-1 -568 67 0 67 0 3 84 c2 46 0
102 -3 125 -3 23 -2 44 3 47 5 3 6 10 3 15 -4 5 -6 42 -5 81 0 72 0 145 -2
157 -5 45 12 20 27 -39 2 -8 24 -100 50 -205 26 -104 48 -194 50 -200 15 -67
13 -65 85 -65 l67 0 -1 568 -1 567 -66 0 -67 1 0 -269 c0 -148 -3 -271 -5
-274 -3 -2 -11 22 -18 54 -7 32 -14 63 -15 68 -5 15 -25 98 -29 115 -2 8 -13
53 -25 100 -21 82 -25 99 -34 148 -12 59 -13 59 -81 59 -36 0 -66 0 -66 -1z"/>
<path d="M4756 2001 c-2 -3 -4 -259 -4 -568 l0 -563 68 0 68 0 0 168 c0 92 1
173 1 180 1 7 15 12 37 12 68 0 100 28 137 120 40 100 53 290 30 425 -13 81
-17 95 -45 152 -32 66 -56 76 -181 79 -59 1 -109 -1 -111 -5z m195 -298 c9
-11 14 -41 13 -91 0 -79 -13 -102 -56 -102 -19 0 -19 1 -19 80 0 133 -1 130
25 130 13 0 30 -7 37 -17z"/>
<path d="M5266 2001 c-2 -3 -3 -259 -3 -568 l0 -561 41 -4 c23 -1 53 -2 67 0
l26 3 -1 567 -1 567 -63 1 c-34 1 -64 -2 -66 -5z"/>
<path d="M6128 2006 c0 -1 -2 -65 -3 -143 l-2 -142 49 3 c26 1 52 0 56 -3 4
-3 8 -195 8 -426 l-1 -420 35 -5 c19 -3 50 -3 68 -1 l32 3 0 424 c0 332 3 424
13 426 6 0 32 2 57 2 l45 1 0 140 0 140 -177 1 c-98 0 -179 0 -180 0z"/>
<path d="M6636 1631 c1 -415 5 -481 36 -591 52 -189 169 -240 255 -112 36 53
63 133 79 237 7 44 13 813 7 831 -3 7 -28 11 -63 11 -45 -1 -61 -5 -64 -16 -3
-9 -5 -149 -5 -311 -1 -162 -1 -317 -1 -344 0 -102 -33 -161 -73 -131 -10 7
-20 23 -23 36 -3 13 -7 31 -9 39 -2 8 -4 175 -4 371 l-1 357 -68 -1 -67 0 1
-376z"/>
<path d="M7190 1438 l0 -569 68 3 67 3 1 165 c2 217 4 228 19 140 17 -92 24
-130 30 -150 2 -8 7 -31 11 -50 3 -19 7 -42 9 -50 2 -8 4 -25 4 -37 1 -22 5
-23 76 -23 82 0 80 -3 64 70 -5 25 -11 54 -13 65 -4 20 -34 162 -43 200 -2 11
-6 31 -9 45 -2 14 -7 31 -10 39 -2 8 -1 17 4 20 4 3 18 22 29 41 80 133 75
470 -10 596 -35 53 -52 58 -179 59 l-118 2 0 -569z m211 256 c16 -20 18 -149
3 -164 -19 -19 -64 -19 -72 -1 -7 13 -8 117 -3 169 2 17 56 15 72 -4z"/>
<path d="M7712 1439 l0 -568 86 -3 c48 -2 113 -2 145 0 l57 3 0 142 0 143 -75
-2 c-63 -1 -75 1 -76 15 -2 37 1 133 5 139 2 4 32 7 65 6 55 0 61 1 62 20 3
79 0 238 -5 243 -3 3 -33 6 -66 5 -59 0 -60 0 -61 29 -2 86 -2 100 4 106 4 3
38 6 77 5 l70 -1 0 143 0 143 -144 -1 -144 0 0 -567z"/>
</g>
</svg>
