<svg width="400" height="316" viewBox="0 0 400 316" fill="none" xmlns="http://www.w3.org/2000/svg">
<path d="M355.265 243.359C342.102 247.473 330.254 248.213 319.724 245.58C308.699 242.619 299.156 238.011 291.093 231.759C283.36 225.506 275.462 218.02 267.399 209.299L137.328 65.159V188.566C137.492 194.325 140.043 198.603 144.979 201.401C147.283 202.717 149.751 203.375 152.383 203.375H157.073V205.843H106.229V203.375H110.919C115.032 203.375 118.57 201.977 121.532 199.179C124.493 196.218 125.974 192.598 125.974 188.32V52.8183C125.152 51.6665 123.506 49.5275 121.038 46.4011C118.57 43.1103 116.513 40.4776 114.868 38.5031C113.222 36.5286 111.001 33.9781 108.204 30.8518C105.406 27.561 102.774 24.9283 100.306 22.9538C98.002 20.9792 95.287 18.6756 92.1607 16.0429C87.2244 12.2585 81.959 9.5435 76.3645 7.89807C70.7701 6.25264 66.0806 5.42992 62.2961 5.42992C58.3471 5.42992 54.1512 6.0881 49.7086 7.40444L48.7213 4.9363C56.6194 1.64543 64.2706 0 71.6751 0C78.915 0 85.1676 0.90499 90.433 2.71497C95.6983 4.3604 101.375 7.40444 107.463 11.8471C113.551 16.2898 118.488 20.4033 122.272 24.1878C126.221 27.9723 130.911 32.9086 136.34 38.9967L260.735 177.213V50.597C260.57 46.3189 259.007 42.7812 256.046 39.984C253.084 37.0222 249.546 35.5413 245.433 35.5413H240.743V33.0731H291.587V35.5413H287.144C283.031 35.5413 279.493 37.0222 276.531 39.984C273.569 42.7812 272.006 46.2366 271.842 50.3502V189.8C273.487 191.61 275.791 194.325 278.752 197.945C281.879 201.565 284.018 204.116 285.17 205.597C286.486 207.077 288.378 209.216 290.846 212.014C293.315 214.811 295.371 216.95 297.017 218.431C298.827 220.076 300.966 222.051 303.434 224.354C306.067 226.823 308.452 228.715 310.592 230.031C312.895 231.512 315.446 233.157 318.243 234.967C322.192 237.271 326.634 238.999 331.571 240.151C336.672 241.302 340.785 241.878 343.912 241.878C347.202 241.878 350.658 241.549 354.278 240.891L355.265 243.359Z" fill="#00A676"/>
<path d="M65.085 34.4553C77.9687 34.4553 88.7051 37.5652 97.2943 43.7849C108.845 52.0778 114.621 65.0356 114.621 82.6582C114.621 95.3938 111.067 106.278 103.958 115.312C96.2577 124.937 85.5212 129.75 71.749 129.75C64.4926 129.75 57.9027 128.047 51.9791 124.641C46.0556 121.087 42.5755 115.09 41.5389 106.649L43.5381 105.982C45.1671 112.35 48.9433 116.793 54.8669 119.31C58.8653 121.087 62.4194 121.976 65.5293 121.976C77.6725 121.976 86.4838 117.237 91.9631 107.759C95.9615 100.799 97.9607 92.5061 97.9607 82.8803C97.9607 67.4791 93.6661 56.3724 85.077 49.5603C78.5611 44.2292 70.2681 41.5636 60.1981 41.5636C57.8286 41.5636 55.7554 41.7116 53.9783 42.0078C52.3494 42.1559 44.9449 43.3406 31.765 45.562V177.287C31.9131 181.285 33.394 184.617 36.2077 187.283C39.0214 189.948 42.2793 191.281 45.9815 191.281H48.8693V193.503H0.222133V191.281H3.10986C6.81208 191.281 10.07 189.948 12.8837 187.283C15.6974 184.617 17.1783 181.285 17.3264 177.287V57.1129C17.3264 53.2626 16.2157 50.3008 13.9944 48.2275C11.7731 46.0062 8.88532 44.8955 5.33119 44.8955C4.59075 44.8955 3.85031 44.9696 3.10986 45.1177L0.444266 45.3398L0 43.1185C7.70061 42.378 17.9928 40.9712 30.8765 38.8979C43.9083 36.6766 51.9791 35.4179 55.089 35.1217C58.1989 34.6774 61.5309 34.4553 65.085 34.4553Z" fill="#53599A"/>
<path d="M350.464 34.4553C363.348 34.4553 374.084 37.5652 382.674 43.7849C394.225 52.0778 400 65.0356 400 82.6582C400 95.3938 396.446 106.278 389.338 115.312C381.637 124.937 370.901 129.75 357.128 129.75C349.872 129.75 343.282 128.047 337.358 124.641C331.435 121.087 327.955 115.09 326.918 106.649L328.917 105.982C330.546 112.35 334.323 116.793 340.246 119.31C344.245 121.087 347.799 121.976 350.909 121.976C363.052 121.976 371.863 117.237 377.342 107.759C381.341 100.799 383.34 92.5061 383.34 82.8803C383.34 67.4791 379.045 56.3724 370.456 49.5603C363.94 44.2292 355.647 41.5636 345.577 41.5636C343.208 41.5636 341.135 41.7116 339.358 42.0078C337.729 42.1559 330.324 43.3406 317.144 45.562V177.287C317.292 181.285 318.773 184.617 321.587 187.283C324.401 189.948 327.659 191.281 331.361 191.281H334.249V193.503H285.601V191.281H288.489C292.191 191.281 295.449 189.948 298.263 187.283C301.077 184.617 302.558 181.285 302.706 177.287V57.1129C302.706 53.2626 301.595 50.3008 299.374 48.2275C297.152 46.0062 294.265 44.8955 290.711 44.8955C289.97 44.8955 289.23 44.9696 288.489 45.1177L285.824 45.3398L285.379 43.1185C293.08 42.378 303.372 40.9712 316.256 38.8979C329.288 36.6766 337.358 35.4179 340.468 35.1217C343.578 34.6774 346.91 34.4553 350.464 34.4553Z" fill="#53599A"/>
<path d="M17.6014 277.205C17.6014 280.793 17.2873 284.06 16.659 287.005C16.0307 289.897 15.0985 292.2 13.8622 293.914C12.6462 295.628 11.1668 296.484 9.42389 296.484H6.74872V314.559H0V257.684H9.42389C12.0585 257.684 14.075 259.451 15.4734 262.986C16.8921 266.52 17.6014 271.26 17.6014 277.205ZM8.6639 282.426C10.0623 282.426 10.7615 280.686 10.7615 277.205C10.7615 273.724 10.0623 271.983 8.6639 271.983H6.74872V282.426H8.6639Z" fill="#1C0F13"/>
<path d="M32.2666 257.684V314.559H25.5179V257.684H32.2666Z" fill="#1C0F13"/>
<path d="M40.4826 286.041C40.4826 280.418 40.9082 275.411 41.7594 271.019C42.6308 266.628 43.8671 263.227 45.4681 260.817C47.0692 258.353 48.9539 257.122 51.1224 257.122C52.987 257.122 54.6488 258.059 56.108 259.933C57.5874 261.754 58.7832 264.352 59.6951 267.725C60.6274 271.099 61.2455 275.036 61.5495 279.534H54.436C54.1117 277.66 53.6456 276.214 53.0376 275.196C52.4499 274.125 51.771 273.59 51.0008 273.59C49.8659 273.59 48.9641 274.714 48.2953 276.964C47.6468 279.213 47.3225 282.239 47.3225 286.041C47.3225 289.844 47.6468 292.87 48.2953 295.119C48.9641 297.368 49.8659 298.493 51.0008 298.493C51.771 298.493 52.4499 297.984 53.0376 296.966C53.6456 295.895 54.1117 294.423 54.436 292.548H61.5495C61.2455 297.047 60.6274 300.983 59.6951 304.357C58.7832 307.731 57.5874 310.355 56.108 312.23C54.6488 314.05 52.987 314.961 51.1224 314.961C48.9539 314.961 47.0692 313.756 45.4681 311.346C43.8671 308.882 42.6308 305.455 41.7594 301.063C40.9082 296.672 40.4826 291.665 40.4826 286.041Z" fill="#1C0F13"/>
<path d="M86.6575 257.684V271.822H80.9423V314.559H74.1936V271.822H68.5393V257.684H86.6575Z" fill="#1C0F13"/>
<path d="M100.861 257.684V289.737C100.861 292.361 101.073 294.449 101.499 296.002C101.945 297.502 102.654 298.252 103.627 298.252C104.6 298.252 105.319 297.502 105.785 296.002C106.251 294.449 106.484 292.361 106.484 289.737V257.684H113.203V289.737C113.203 295.146 112.777 299.778 111.926 303.634C111.075 307.436 109.909 310.302 108.43 312.23C106.951 314.158 105.299 315.122 103.475 315.122C101.651 315.122 100.03 314.158 98.6109 312.23C97.2126 310.302 96.1182 307.436 95.3278 303.634C94.5374 299.832 94.1422 295.199 94.1422 289.737V257.684H100.861Z" fill="#1C0F13"/>
<path d="M132.712 314.559L128.669 294.155H128.638V314.559H121.889V257.684H131.921C133.664 257.684 135.154 258.514 136.39 260.174C137.626 261.781 138.548 264.003 139.156 266.842C139.785 269.627 140.099 272.786 140.099 276.321C140.099 280.123 139.694 283.497 138.883 286.443C138.092 289.388 136.947 291.504 135.448 292.789L140.129 314.559H132.712ZM128.638 282.266H131.313C131.962 282.266 132.448 281.891 132.773 281.141C133.097 280.338 133.259 279.106 133.259 277.446C133.259 275.946 133.087 274.768 132.742 273.911C132.418 273.054 131.942 272.626 131.313 272.626H128.638V282.266Z" fill="#1C0F13"/>
<path d="M154.779 271.903V278.892H161.467V292.307H154.779V300.34H162.379V314.559H148.031V257.684H162.379V271.903H154.779Z" fill="#1C0F13"/>
<path d="M188.389 257.684V314.559H181.64V257.684H188.389Z" fill="#1C0F13"/>
<path d="M217.854 314.559H211.105L203.962 285.961V314.559H197.213V257.684H203.962L211.105 286.764V257.684H217.854V314.559Z" fill="#1C0F13"/>
<path d="M255.222 277.205C255.222 280.793 254.908 284.06 254.28 287.005C253.651 289.897 252.719 292.2 251.483 293.914C250.267 295.628 248.787 296.484 247.045 296.484H244.369V314.559H237.621V257.684H247.045C249.679 257.684 251.696 259.451 253.094 262.986C254.513 266.52 255.222 271.26 255.222 277.205ZM246.285 282.426C247.683 282.426 248.382 280.686 248.382 277.205C248.382 273.724 247.683 271.983 246.285 271.983H244.369V282.426H246.285Z" fill="#1C0F13"/>
<path d="M269.887 257.684V314.559H263.138V257.684H269.887Z" fill="#1C0F13"/>
<path d="M278.103 286.041C278.103 280.418 278.529 275.411 279.38 271.019C280.251 266.628 281.488 263.227 283.089 260.817C284.69 258.353 286.575 257.122 288.743 257.122C290.608 257.122 292.269 258.059 293.729 259.933C295.208 261.754 296.404 264.352 297.316 267.725C298.248 271.099 298.866 275.036 299.17 279.534H292.057C291.732 277.66 291.266 276.214 290.658 275.196C290.071 274.125 289.392 273.59 288.621 273.59C287.487 273.59 286.585 274.714 285.916 276.964C285.267 279.213 284.943 282.239 284.943 286.041C284.943 289.844 285.267 292.87 285.916 295.119C286.585 297.368 287.487 298.493 288.621 298.493C289.392 298.493 290.071 297.984 290.658 296.966C291.266 295.895 291.732 294.423 292.057 292.548H299.17C298.866 297.047 298.248 300.983 297.316 304.357C296.404 307.731 295.208 310.355 293.729 312.23C292.269 314.05 290.608 314.961 288.743 314.961C286.575 314.961 284.69 313.756 283.089 311.346C281.488 308.882 280.251 305.455 279.38 301.063C278.529 296.672 278.103 291.665 278.103 286.041Z" fill="#1C0F13"/>
<path d="M324.278 257.684V271.822H318.563V314.559H311.814V271.822H306.16V257.684H324.278Z" fill="#1C0F13"/>
<path d="M338.481 257.684V289.737C338.481 292.361 338.694 294.449 339.12 296.002C339.565 297.502 340.275 298.252 341.247 298.252C342.22 298.252 342.94 297.502 343.406 296.002C343.872 294.449 344.105 292.361 344.105 289.737V257.684H350.823V289.737C350.823 295.146 350.398 299.778 349.547 303.634C348.695 307.436 347.53 310.302 346.051 312.23C344.571 314.158 342.919 315.122 341.095 315.122C339.272 315.122 337.65 314.158 336.232 312.23C334.833 310.302 333.739 307.436 332.948 303.634C332.158 299.832 331.763 295.199 331.763 289.737V257.684H338.481Z" fill="#1C0F13"/>
<path d="M370.332 314.559L366.289 294.155H366.259V314.559H359.51V257.684H369.542C371.285 257.684 372.774 258.514 374.011 260.174C375.247 261.781 376.169 264.003 376.777 266.842C377.405 269.627 377.719 272.786 377.719 276.321C377.719 280.123 377.314 283.497 376.503 286.443C375.713 289.388 374.568 291.504 373.068 292.789L377.75 314.559H370.332ZM366.259 282.266H368.934C369.582 282.266 370.069 281.891 370.393 281.141C370.717 280.338 370.88 279.106 370.88 277.446C370.88 275.946 370.707 274.768 370.363 273.911C370.038 273.054 369.562 272.626 368.934 272.626H366.259V282.266Z" fill="#1C0F13"/>
<path d="M392.4 271.903V278.892H399.088V292.307H392.4V300.34H400V314.559H385.651V257.684H400V271.903H392.4Z" fill="#1C0F13"/>
</svg>
